<svg width="1070" height="1093" viewBox="0 0 1070 1093" fill="none" xmlns="http://www.w3.org/2000/svg">
<path fill-rule="evenodd" clip-rule="evenodd" d="M291.081 240.637C343.749 201.739 412.518 200.615 476.477 185.742C547.987 169.114 621.315 115.777 689.993 147.877C758.904 180.086 779.415 271.278 811.08 342.133C836.928 399.974 851.776 459.968 857.408 522.499C862.75 581.806 864.355 642.023 842.955 696.031C821.742 749.569 774.034 782.621 737.242 825.769C691.8 879.06 668.997 966.489 600.501 980.364C532.965 994.045 470.197 931.453 410.425 891.971C358.502 857.674 320.656 809.184 275.498 765.685C221.273 713.451 136.593 682.635 117.384 609.691C98.3483 537.409 149.599 469.798 180.364 404.433C209.131 343.312 237.705 280.057 291.081 240.637Z" fill="#F9F9F9"/>
<g clip-path="url(#clip0_543_7712)">
<path d="M154.87 739.969L121.588 764.93C120.075 766.443 118.562 768.712 118.562 770.981C118.562 773.25 118.562 775.52 120.075 777.032L169.241 842.083C169.998 843.596 171.511 844.352 173.78 844.352C175.293 844.352 177.562 844.352 178.318 842.839C197.228 828.468 209.331 812.583 194.959 792.917L154.87 739.969Z" fill="#00448D"/>
<path d="M185.883 839.055C181.344 830.735 178.319 817.876 170.755 811.068C166.973 807.286 160.921 806.53 158.652 801.991C155.627 797.453 156.383 792.158 154.114 787.62C152.601 784.594 150.332 782.325 147.306 781.569C141.255 778.543 138.229 776.274 135.204 770.223C132.178 764.171 128.396 757.364 120.076 756.607C117.05 756.607 117.05 761.146 120.076 761.146C129.909 761.902 130.665 776.274 137.473 781.569C139.742 783.081 142.768 783.838 145.793 785.351C151.845 788.376 151.845 794.427 153.357 800.479C154.87 805.773 160.165 808.799 165.46 812.581C173.78 818.632 177.562 832.247 182.101 841.324C182.857 843.593 187.395 841.324 185.883 839.055Z" fill="white"/>
<path d="M188.152 785.353C182.857 783.84 177.562 783.084 172.267 782.327C169.242 782.327 169.242 786.109 172.267 786.866C177.562 787.622 182.1 788.378 187.395 789.891C188.152 789.891 188.152 789.891 188.908 789.891C189.664 789.891 189.664 789.135 189.664 788.378C189.664 787.622 189.664 787.622 189.664 786.866C189.664 786.109 188.908 786.109 188.152 785.353Z" fill="white"/>
<path d="M194.202 795.185C188.908 793.672 183.613 792.916 178.318 792.916C175.292 792.916 175.292 796.698 178.318 797.454C183.613 797.454 188.151 798.211 192.69 799.724C193.446 799.724 193.446 799.724 194.202 799.724C194.959 799.724 194.959 798.967 194.959 798.211C194.959 797.454 194.959 797.454 194.959 796.698C194.959 795.942 194.202 795.185 194.202 795.185Z" fill="white"/>
<path d="M464.994 786.109V827.711C464.994 829.981 465.751 832.25 467.263 833.763C468.776 835.275 471.045 836.032 473.315 836.032L555.006 836.788C555.762 836.788 556.519 836.788 557.275 836.032C558.031 836.032 558.788 835.275 559.544 834.519C560.301 833.763 560.301 833.006 561.057 832.25C561.057 831.493 561.813 830.737 561.813 829.981C561.813 805.776 556.519 786.866 532.314 786.109H464.994Z" fill="#00448D"/>
<path d="M561.813 821.66C552.737 819.391 540.634 814.853 530.801 816.366C525.506 817.122 521.724 820.904 515.673 820.904C510.378 820.148 506.596 816.366 501.301 815.609C498.276 814.853 494.494 815.609 492.225 817.122C486.173 820.148 482.391 820.904 475.584 819.391C468.776 817.878 461.212 817.122 455.917 823.173C453.648 825.442 457.43 828.468 459.699 826.199C466.507 819.391 478.609 826.955 486.93 824.686C489.955 823.93 492.225 821.66 495.25 820.904C501.301 817.878 505.84 821.66 511.135 823.93C516.429 826.199 521.724 823.93 528.532 821.66C538.365 818.635 551.224 823.93 561.057 825.442C564.083 826.955 564.839 822.417 561.813 821.66Z" fill="white"/>
<path d="M521.725 786.866C517.186 789.892 513.404 793.674 509.622 797.456C508.109 799.725 511.135 802.751 512.648 800.481C516.43 796.699 520.212 793.674 523.994 790.648C526.263 789.135 523.994 785.353 521.725 786.866Z" fill="white"/>
<path d="M533.07 788.376C528.532 791.402 524.75 795.184 520.968 798.966C519.455 801.235 522.481 804.261 523.994 801.991C527.019 798.209 530.801 794.427 534.583 791.402C536.852 790.645 534.583 786.863 533.07 788.376Z" fill="white"/>
<path d="M552.736 757.366V756.609C553.493 738.456 552.736 719.546 550.467 701.392C548.198 680.213 542.903 659.034 533.07 640.124C514.916 603.06 483.904 574.317 446.084 557.676C443.815 556.92 441.545 559.945 443.815 561.458C480.878 577.342 507.352 618.188 507.352 618.188C507.352 618.188 514.916 603.816 506.596 616.675C504.327 620.457 486.173 647.688 486.173 647.688C486.173 647.688 468.019 679.456 459.699 683.995C458.186 684.751 449.109 692.315 448.353 693.072C447.597 690.802 447.597 691.559 446.084 689.29C441.545 680.213 434.738 672.649 426.417 666.598C408.264 652.226 386.328 643.906 370.444 627.265C368.931 624.996 365.905 628.021 367.418 630.29C381.033 644.662 398.431 652.982 414.315 663.572C423.392 669.623 431.712 676.431 437.763 684.751C440.789 689.29 443.815 695.341 444.571 700.636C441.545 705.93 441.545 712.738 445.327 718.033C446.084 718.789 446.84 720.302 446.84 721.058C446.84 726.353 446.84 731.648 447.597 736.943C447.597 740.725 447.597 745.263 447.597 749.045V752.071C447.597 761.904 446.84 772.494 449.109 782.327C450.622 788.378 454.404 791.404 460.455 791.404C472.558 792.16 484.66 791.404 496.006 791.404C508.109 791.404 523.993 791.404 537.608 791.404C543.659 791.404 551.223 789.891 551.223 783.083V782.327C552.736 774.006 552.736 765.686 552.736 757.366ZM544.416 786.865C545.929 785.352 547.441 783.84 548.198 782.327C548.954 785.352 546.685 786.109 544.416 786.865Z" fill="#0266D1"/>
<path d="M468.776 570.533C460.456 565.994 449.866 557.674 440.033 559.943C434.738 561.456 430.2 563.725 424.905 564.481C419.61 565.238 414.315 565.238 409.02 565.238C402.213 564.481 395.405 563.725 389.354 561.456C387.841 560.699 387.085 559.943 385.572 559.943C384.816 559.187 383.303 558.43 382.546 558.43L374.226 556.161C372.713 554.648 371.2 553.135 369.688 553.135C365.906 552.379 361.367 547.841 357.585 544.815L352.29 541.033C351.534 538.764 350.021 536.495 347.752 534.982L346.239 534.225L343.97 530.443C343.214 528.931 342.457 528.174 340.944 527.418C339.432 526.661 338.675 526.661 337.162 526.661L338.675 525.149C340.188 522.879 336.406 521.367 334.893 522.879L331.111 528.174C329.598 529.687 328.086 531.2 328.086 533.469L317.496 547.841C308.419 556.917 301.612 568.263 294.048 578.853L292.535 581.122C279.676 597.763 265.304 614.404 250.933 630.288C236.561 646.173 219.92 663.57 203.279 678.698C194.959 686.262 186.639 693.826 178.318 701.39C173.78 705.172 168.485 708.954 162.434 711.223C158.652 712.736 154.113 715.005 150.331 717.274C142.011 723.326 142.011 730.133 145.037 737.697C145.793 739.966 146.549 742.236 148.062 744.505C149.575 746.774 151.088 748.287 153.357 749.043C154.87 750.556 156.383 752.069 158.652 753.582C162.434 756.607 166.972 758.876 169.998 762.658C172.267 764.928 173.78 767.953 175.293 771.735L176.049 773.248C176.049 774.004 176.805 774.761 176.805 775.517L178.318 779.299C181.344 788.376 188.151 796.696 196.472 801.235H197.228C204.036 805.773 211.6 809.555 219.92 808.042C228.241 806.53 237.318 799.722 244.125 795.184C262.279 783.838 278.92 771.735 296.317 758.876L307.663 750.556C328.086 734.672 348.508 717.274 366.662 699.121C378.764 687.775 390.11 674.916 399.944 662.057L404.482 656.762C404.482 656.006 405.238 656.006 405.238 655.249L405.995 653.737C409.02 656.006 412.046 658.275 415.072 659.788C419.61 662.057 425.661 660.544 427.174 655.249C427.93 652.224 428.687 649.198 428.687 646.173C430.2 646.929 430.956 647.686 432.469 648.442C436.251 649.955 440.033 649.955 443.058 646.929C446.84 643.903 447.597 638.609 447.597 633.314C452.135 632.558 455.917 630.288 457.43 624.993C457.43 621.968 457.43 618.942 456.674 616.673C458.186 616.673 458.943 616.673 460.456 616.673C468.776 615.16 471.802 608.353 471.045 600.032C471.045 599.276 471.045 599.276 471.045 598.519C473.314 598.519 474.827 597.763 477.096 597.007C478.609 596.25 480.122 594.737 481.635 593.225C485.417 581.879 476.34 574.315 468.776 570.533Z" fill="#0266D1"/>
<path d="M748.645 463.881C748.645 462.368 748.645 460.099 747.889 458.586C746.376 454.804 744.863 451.779 742.594 448.753L748.645 463.881Z" fill="#FFC800"/>
<path d="M779.657 510.778L741.837 278.563C741.837 277.806 742.593 277.806 742.593 277.05C742.593 276.294 741.837 275.537 741.08 274.781C740.324 274.024 739.568 274.024 738.811 274.024L490.712 289.909L489.199 290.665C488.443 290.665 487.686 291.422 487.686 292.178C486.93 292.934 486.93 293.691 486.93 294.447C486.93 295.204 487.686 295.96 488.443 296.716L598.877 381.433L445.328 572.046C440.789 577.341 434.738 581.123 427.931 581.879C421.123 582.636 414.315 581.123 408.264 577.341L327.329 521.367C324.304 519.098 321.278 517.585 317.496 516.829C313.714 516.072 309.932 516.072 306.907 516.829C303.125 517.585 300.099 519.098 297.073 520.611C294.048 522.88 291.022 525.149 289.509 528.175L283.458 535.739C282.702 536.495 282.702 536.495 281.945 537.252L58.051 815.607C53.5126 821.658 51.2434 828.466 51.9998 836.03C52.7562 843.594 56.5382 850.401 62.5894 854.94L83.0122 871.581C89.0634 876.119 95.871 878.388 103.435 877.632C110.999 876.875 117.807 873.093 122.345 867.042L306.907 637.853C311.445 632.558 317.496 628.776 324.304 628.02C331.111 627.263 337.919 628.776 343.97 632.558L427.174 690.045C433.225 694.583 440.789 696.096 447.597 694.583C455.161 693.07 461.212 689.288 465.751 683.237L496.763 638.609L663.928 430.599L775.118 516.072C775.875 516.829 776.631 516.829 777.388 516.829C778.144 516.829 778.144 516.829 778.9 516.829C779.657 516.829 779.657 516.072 780.413 516.072C781.17 515.316 781.17 514.56 781.17 513.803C780.413 511.534 780.413 510.778 779.657 510.778Z" fill="#FFC800"/>
<path d="M420.366 470.689C420.366 480.523 427.174 488.843 433.981 495.651C443.058 504.727 452.135 513.048 462.725 520.612C468.019 524.394 473.314 527.419 479.365 529.689C484.66 531.201 490.711 531.958 496.763 532.714C505.839 533.471 515.673 534.227 523.993 531.958C536.852 528.932 546.685 520.612 556.518 511.535C577.697 491.869 595.851 469.177 613.248 446.485C616.274 442.703 619.299 438.164 621.569 433.626L633.671 397.319L625.351 391.267L616.274 380.678L603.415 384.46L592.069 401.857L580.723 392.024L572.403 411.69L548.954 425.305L498.275 455.561L420.366 470.689Z" fill="white"/>
<path d="M418.098 470.689C418.854 481.278 424.906 489.599 431.713 497.163C440.034 506.239 449.11 513.803 458.944 521.367C468.02 528.175 477.097 532.713 488.443 534.226C499.789 535.739 512.648 536.495 523.994 534.226C545.93 528.931 563.327 508.509 577.698 492.624C586.775 482.791 595.096 472.958 603.416 462.368C611.736 451.779 619.3 444.971 623.839 434.381C624.595 432.112 620.813 430.599 620.057 432.869C615.518 443.458 606.442 452.535 599.634 461.612C592.826 470.689 586.019 478.253 579.211 485.817C565.596 500.945 551.224 519.098 532.314 527.419C521.725 531.957 511.135 531.957 499.789 531.201C488.443 530.444 477.097 528.175 466.508 520.611C457.431 514.56 449.11 507.752 441.546 500.188C433.226 492.624 424.149 483.547 423.393 471.445C421.88 467.663 417.342 467.663 418.098 470.689Z" fill="#00448D"/>
<path d="M567.864 411.692C548.198 420.012 532.314 433.627 514.16 444.217C505.083 449.512 496.006 454.05 486.173 458.589C477.096 462.371 468.776 468.422 461.212 474.473C458.943 475.986 461.968 479.011 464.237 477.499C480.122 463.883 499.032 457.832 516.429 447.243C533.826 436.653 549.711 423.038 568.621 414.717C571.646 414.717 570.89 410.935 567.864 411.692Z" fill="#00448D"/>
<path d="M432.469 368.575C423.392 385.215 440.789 398.074 452.892 407.151C469.533 420.01 487.686 432.869 494.494 454.048C495.25 456.317 499.789 455.561 498.276 452.535C492.981 436.651 481.635 424.548 469.533 414.715C456.674 404.125 426.418 388.997 436.251 370.087C437.764 367.818 433.982 366.305 432.469 368.575Z" fill="#00448D"/>
<path d="M433.982 492.623C435.495 481.277 446.841 469.174 455.161 461.61C463.481 454.803 477.853 447.995 489.199 443.457C491.468 441.944 490.712 438.162 487.686 439.675C474.827 444.97 460.456 451.021 449.866 460.854C440.033 470.687 430.2 480.52 429.443 493.379C429.443 495.648 433.225 495.648 433.982 492.623Z" fill="#00448D"/>
<path d="M464.238 378.41C458.187 389.756 460.456 402.614 464.995 414.717C465.751 416.986 470.289 416.23 468.777 413.204C464.995 402.614 462.725 391.268 468.02 380.679C468.777 378.41 465.751 376.14 464.238 378.41Z" fill="#00448D"/>
<path d="M419.61 279.321L421.123 280.078L419.61 279.321Z" fill="#00448D"/>
<path d="M456.674 314.868H455.161V314.111L456.674 314.868Z" fill="#00448D"/>
<path d="M449.866 376.139C455.918 379.921 467.264 385.216 474.071 379.921C480.122 374.627 483.904 362.524 483.904 352.691C483.904 351.935 483.904 351.935 483.148 351.178C482.392 350.422 482.392 350.422 481.635 350.422C480.879 350.422 480.879 350.422 480.122 351.178C479.366 351.935 479.366 351.935 479.366 352.691C479.366 360.255 478.61 366.306 474.828 372.357C470.289 378.409 458.943 376.139 452.892 372.357C452.136 372.357 452.136 372.357 451.379 372.357C450.623 372.357 450.623 373.114 449.866 373.114C449.866 373.87 449.866 373.87 449.866 374.627C449.11 375.383 449.866 376.139 449.866 376.139Z" fill="#00448D"/>
<path d="M468.019 314.871C465.75 313.358 463.481 312.601 461.212 312.601C453.648 309.576 446.84 308.063 439.276 308.819C435.494 304.281 437.007 294.448 434.738 289.909C433.225 285.371 429.443 281.589 425.661 278.563C421.123 275.538 415.828 273.268 410.533 272.512C406.751 271.756 400.7 270.999 396.918 272.512C393.136 274.781 393.136 277.05 393.136 280.076C391.623 288.396 389.354 293.691 381.033 298.23C374.982 301.255 368.931 302.768 362.88 305.037C356.829 307.306 350.777 310.332 344.726 313.358C336.406 317.896 327.329 323.947 325.816 334.537C325.06 344.37 337.162 351.178 338.675 361.011C340.188 370.844 337.162 379.165 336.406 387.485C335.649 396.562 334.137 404.126 335.649 411.69C338.675 423.792 350.021 434.382 359.854 441.946C356.072 449.51 353.803 457.83 350.777 466.151C347.752 474.471 343.97 485.817 340.944 495.65C337.162 505.483 334.137 513.804 333.38 522.881C333.38 525.15 337.162 525.15 337.162 522.881C337.162 513.047 341.701 503.971 344.726 495.65L354.559 467.663C359.098 454.048 364.393 439.677 372.713 427.574C380.277 416.228 389.354 406.395 399.187 397.318C409.02 388.241 419.61 379.165 432.469 374.626C432.469 374.626 433.225 374.626 433.225 373.87L433.981 373.113V372.357C433.981 372.357 433.981 371.601 433.225 371.601C430.956 360.255 431.712 348.152 437.007 336.806C439.276 332.268 442.302 326.973 446.84 323.947C451.379 320.922 458.943 320.922 465.75 320.165C467.263 320.922 468.776 322.435 470.289 323.947C479.365 333.781 478.609 347.396 478.609 359.498C478.609 362.524 483.147 362.524 483.147 359.498C484.66 342.857 483.904 323.191 468.019 314.871ZM430.199 370.844C430.199 370.088 430.199 370.088 430.199 370.844V370.844Z" fill="#00448D"/>
<path d="M440.033 342.101C437.764 339.832 434.738 337.563 430.956 338.319C427.174 339.076 426.418 342.101 426.418 345.127C426.418 348.152 427.174 351.178 430.2 352.691C433.226 354.204 436.251 351.178 437.764 348.152C439.277 345.127 440.033 342.101 437.008 340.588C435.495 339.832 433.982 339.832 432.469 339.832C430.956 339.832 429.444 340.588 428.687 342.101C427.174 344.37 427.174 348.152 430.2 348.909C430.956 348.909 431.713 348.909 431.713 348.909C431.713 348.909 433.226 348.909 433.226 348.152C433.982 348.152 433.982 347.396 434.738 346.64L435.495 345.883C435.495 345.127 435.495 345.127 435.495 345.883L432.469 344.37C433.982 348.152 433.226 351.934 433.982 355.716C434.738 359.498 438.52 357.229 437.764 354.204C437.008 351.934 437.764 346.64 436.251 342.858C436.251 342.858 436.251 342.101 435.495 342.101L434.738 341.345H433.982H433.226C432.469 341.345 431.713 342.858 431.713 342.858C431.713 342.858 432.469 342.101 433.226 342.101C433.982 342.101 433.982 342.101 434.738 342.101C435.495 342.101 435.495 342.101 434.738 342.858C434.738 343.614 433.982 345.127 433.226 345.883C432.469 346.64 432.469 346.64 430.956 345.883C430.2 345.127 429.444 345.883 429.444 344.37C429.444 343.614 429.444 343.614 429.444 342.858C429.444 342.101 429.444 342.101 430.2 341.345C430.956 339.832 431.713 339.832 433.226 340.588C433.982 341.345 434.738 342.101 436.251 342.858C438.52 346.64 441.546 343.614 440.033 342.101Z" fill="white"/>
<path d="M440.789 373.871C442.302 372.358 439.276 367.064 433.982 361.769C428.687 356.474 424.148 353.448 422.636 354.205C421.123 355.718 424.148 361.012 429.443 366.307C433.982 371.602 439.276 375.384 440.789 373.871Z" fill="#0266D1"/>
<path d="M439.277 374.627C437.764 374.627 436.251 373.871 435.495 373.114C432.469 371.602 430.2 369.332 427.931 367.063C423.392 362.525 419.61 356.474 421.123 354.204C423.392 352.692 428.687 356.474 433.225 361.768C435.495 364.038 437.764 366.307 439.277 369.332C440.789 372.358 440.789 373.871 440.033 374.627H439.277ZM423.392 354.961C422.636 355.717 424.149 360.256 429.443 365.55C431.713 367.82 433.982 370.089 436.251 371.602C438.52 373.114 440.033 373.114 440.033 373.114C440.033 373.114 440.033 372.358 438.52 369.332C437.007 366.307 435.495 364.038 433.225 361.768C427.931 357.23 424.149 354.961 423.392 354.961Z" fill="#0266D1"/>
<path d="M434.738 373.869C435.495 388.24 446.841 396.561 459.7 401.099C464.994 402.612 467.264 394.291 461.969 392.779C452.892 389.753 443.815 384.458 443.815 373.869C443.059 368.574 434.738 368.574 434.738 373.869Z" fill="#0266D1"/>
<path d="M354.56 503.214C353.803 506.996 353.803 511.535 356.073 514.56C358.342 517.586 363.637 519.099 367.419 520.611C371.201 521.368 376.495 522.881 380.277 521.368C384.059 519.855 383.303 515.317 384.059 512.291C384.816 503.971 382.547 496.407 373.47 495.65C365.906 494.894 354.56 494.894 354.56 504.727C354.56 505.483 354.56 505.483 355.316 506.24C354.56 505.483 355.316 505.483 356.073 505.483C356.829 505.483 356.829 505.483 357.585 504.727C358.342 503.971 358.342 503.971 358.342 503.214C358.342 496.407 369.688 497.163 374.226 498.676C378.765 500.189 380.277 504.727 380.277 510.022V513.047C379.521 515.317 378.008 516.829 376.495 516.073C374.226 515.317 371.957 515.317 369.688 515.317C367.419 515.317 364.393 513.804 362.124 513.047C359.098 510.778 359.098 506.996 359.855 503.971C359.098 500.945 355.316 500.189 354.56 503.214Z" fill="#FFC800"/>
<path d="M388.598 451.025C384.059 454.05 383.303 460.858 385.572 465.396C387.841 469.935 395.405 471.448 400.7 471.448C405.995 470.691 410.533 466.153 409.021 460.858C407.508 454.807 398.431 452.538 393.136 450.268C390.867 449.512 389.354 453.294 391.623 454.05C393.893 454.807 397.675 456.32 400.7 457.832C403.726 459.345 404.482 460.102 404.482 462.371C404.482 464.64 402.213 466.909 400.7 466.909C397.675 467.666 394.649 466.909 391.623 465.396C387.841 463.884 387.085 457.076 390.867 454.807C390.867 454.807 391.623 454.807 391.623 454.05V453.294V452.538V451.781C391.623 451.781 391.623 451.025 390.867 451.025H390.111H389.354C388.598 451.025 388.598 451.025 388.598 451.025Z" fill="#FFC800"/>
<path d="M385.572 415.473C384.815 416.23 384.815 416.986 384.815 418.499C384.815 419.255 384.815 420.768 385.572 421.525C385.572 422.281 386.328 423.037 387.085 423.794C387.841 424.55 388.597 425.307 389.354 425.307C393.136 426.819 396.161 423.037 397.674 419.255C398.431 417.743 399.187 415.473 398.431 413.961C397.674 413.204 397.674 412.448 396.918 411.691C396.161 410.935 395.405 410.935 394.649 410.935C390.11 410.179 384.815 410.935 384.815 416.23C384.815 419.255 388.597 419.255 389.354 416.23C389.354 413.204 393.136 415.473 394.649 415.473C396.161 415.473 395.405 416.23 395.405 416.986C395.405 417.743 394.649 418.499 394.649 418.499C393.892 420.012 393.136 421.525 391.623 421.525C390.11 421.525 389.354 420.012 390.11 418.499C390.11 417.743 390.867 417.743 390.11 416.986C390.11 416.23 389.354 416.23 389.354 415.473C388.597 415.473 388.597 414.717 387.841 415.473C386.328 414.717 385.572 415.473 385.572 415.473Z" fill="#FFC800"/>
<path d="M402.213 544.817C399.187 547.843 397.674 553.138 400.7 556.92C402.213 558.433 403.726 559.945 405.995 560.702C408.264 561.458 410.533 561.458 412.802 560.702C417.341 559.189 417.341 553.894 415.828 550.112C415.072 547.843 413.559 546.33 411.29 544.817C409.02 543.305 407.508 543.305 405.238 543.305C402.213 543.305 402.213 547.843 405.238 547.843C405.995 547.843 407.508 547.843 408.264 548.599C409.02 549.356 409.777 549.356 410.533 550.869C412.046 552.381 413.559 556.92 410.533 557.676C409.02 557.676 408.264 557.676 406.751 557.676C405.238 556.92 404.482 556.163 403.726 555.407C402.213 553.138 402.969 550.869 405.238 548.599C405.995 547.843 405.995 547.843 405.995 547.087C405.995 546.33 405.995 546.33 405.238 545.574C404.482 544.817 404.482 544.817 403.726 544.817C402.969 544.061 402.213 544.817 402.213 544.817Z" fill="#FFC800"/>
<path d="M450.623 423.789C445.328 423.789 443.059 426.815 443.816 432.109C443.816 436.648 447.598 439.673 452.136 440.43C454.405 440.43 456.674 439.673 458.187 438.161C459.7 436.648 460.456 435.135 461.213 432.866C460.456 426.815 455.162 423.789 450.623 423.789C450.623 423.789 449.867 423.789 449.11 424.545C448.354 425.302 448.354 425.302 448.354 426.058C448.354 426.815 448.354 426.815 449.11 427.571C449.867 428.327 449.867 428.327 450.623 428.327C452.136 428.327 455.918 429.84 455.918 432.109C455.918 434.379 453.649 435.891 451.38 435.891C449.11 435.891 446.841 434.379 446.841 432.109C446.841 431.353 446.841 430.597 446.841 429.84C447.598 428.327 448.354 428.327 449.867 428.327C451.38 427.571 452.892 423.789 450.623 423.789Z" fill="#FFC800"/>
<path d="M533.826 792.158C558.788 792.158 558.788 753.582 533.826 753.582C508.865 753.582 508.865 792.158 533.826 792.158Z" fill="#0266D1"/>
<path d="M429.444 587.173C430.2 587.173 430.2 587.173 430.957 586.417C431.713 585.66 431.713 585.66 431.713 584.904C431.713 584.148 431.713 584.148 430.957 583.391C430.2 582.635 430.2 582.635 429.444 582.635C428.688 582.635 428.688 582.635 427.931 583.391C427.175 584.148 427.175 584.148 427.175 584.904C427.175 585.66 427.175 585.66 427.931 586.417C427.931 587.173 428.688 587.173 429.444 587.173Z" fill="#0266D1"/>
<path d="M457.43 518.344C455.161 525.152 452.892 531.96 450.623 538.767C448.354 545.575 446.084 553.139 441.546 557.677C437.008 562.216 425.662 562.216 418.854 561.459C412.803 561.459 406.752 560.703 400.7 559.19C388.598 556.921 376.496 552.383 365.906 545.575C360.611 541.793 355.316 538.011 351.534 533.473C347.752 529.69 340.945 525.909 338.676 519.857C338.676 519.101 337.919 519.101 337.919 518.344C337.163 518.344 337.163 518.344 336.406 518.344C335.65 518.344 335.65 519.101 334.894 519.101C334.894 519.857 334.894 519.857 334.894 520.614C336.406 525.908 340.945 528.934 344.727 532.716C348.509 536.498 355.316 543.306 362.124 547.844C374.983 556.165 389.354 561.459 404.482 563.729C412.046 565.241 418.854 565.241 426.418 565.241C431.713 565.241 438.52 565.241 443.059 561.459C447.597 557.677 449.866 550.87 452.136 545.575C455.918 536.498 458.943 527.421 461.969 518.344C462.725 516.832 458.187 515.319 457.43 518.344Z" fill="#00448D"/>
<path d="M333.381 567.509C330.355 587.176 346.996 606.086 359.855 618.945C367.419 626.509 374.983 633.316 384.06 639.367C393.137 645.419 404.483 650.713 409.021 660.547C410.534 662.816 414.316 660.547 412.803 658.277C409.021 651.47 402.97 646.931 396.919 642.393C387.842 637.098 379.521 630.291 371.957 623.483C364.393 616.675 357.586 609.111 351.535 600.791C343.971 590.958 336.407 580.368 338.676 567.509C337.92 565.997 334.137 565.24 333.381 567.509Z" fill="#00448D"/>
<path d="M286.484 660.547C269.843 676.431 258.497 697.611 242.613 715.008C234.293 724.085 225.216 730.892 217.652 739.969C210.088 749.046 202.524 758.879 196.473 768.712C194.96 770.981 198.742 773.251 200.255 770.981C207.062 760.392 213.87 750.559 222.947 741.482C231.267 732.405 240.344 724.841 247.908 716.521C263.036 699.88 273.625 679.457 290.266 664.329C291.779 661.303 288.753 659.034 286.484 660.547Z" fill="#00448D"/>
<path d="M228.997 597.007L170.755 674.16L142.768 711.223C132.935 724.082 123.101 738.454 111.755 749.8C109.486 752.069 112.512 755.094 114.025 753.582C124.614 742.992 132.935 730.133 142.011 718.787L172.267 679.454L232.779 600.032C234.292 597.007 230.51 594.738 228.997 597.007Z" fill="#00448D"/>
<path d="M183.613 779.301L163.946 802.749C162.434 805.018 165.459 808.044 166.972 805.775L186.638 782.326C188.908 780.057 185.882 777.032 183.613 779.301Z" fill="#00448D"/>
<path d="M104.948 756.61C99.6527 761.905 95.1143 767.956 89.8195 773.251C88.3067 775.52 91.3323 778.546 92.8451 776.276C98.1399 770.982 102.678 764.93 107.973 759.636C108.73 758.879 108.73 758.879 108.73 758.123C108.73 757.366 108.73 757.366 107.973 756.61C107.217 755.854 107.217 755.854 106.46 755.854C105.704 755.854 104.948 755.854 104.948 756.61Z" fill="#00448D"/>
<path d="M537.608 430.6C536.095 437.408 536.095 444.216 537.608 450.267C539.121 457.074 542.903 463.126 547.441 467.664C551.98 472.959 557.275 476.741 564.082 479.01C570.133 481.279 576.941 482.792 583.749 482.036C586.774 482.036 586.774 477.497 583.749 477.497C577.698 478.254 571.646 477.497 565.595 475.228C559.544 472.959 555.005 469.177 550.467 464.638C546.685 460.1 543.659 454.805 542.147 448.754C540.634 442.703 540.634 436.652 541.39 430.6C542.147 429.088 537.608 427.575 537.608 430.6Z" fill="#FFC800"/>
<path d="M532.314 774.762C523.993 758.121 523.993 739.968 523.237 721.058C523.237 712.737 522.481 704.417 521.724 696.853C520.968 688.533 520.211 682.481 516.429 676.43C514.917 674.161 511.135 676.43 512.647 678.699C517.942 686.263 517.942 696.853 518.699 705.93C519.455 714.25 519.455 723.327 520.211 731.647C520.968 747.532 522.481 762.66 529.288 777.031C529.288 779.301 533.07 777.031 532.314 774.762Z" fill="white"/>
<path d="M421.88 591.714C431.713 594.739 440.79 599.278 449.11 604.572H449.866H450.623H451.379L452.136 603.816V603.06V602.303V601.547L451.379 600.79C442.302 594.739 433.226 590.201 423.392 587.175C420.367 586.419 418.854 590.201 421.88 591.714Z" fill="white"/>
<path d="M211.6 783.081C239.587 767.197 266.061 748.287 290.265 727.108C315.983 705.172 338.675 679.455 359.854 652.981C361.367 650.711 358.341 647.686 356.829 649.955C335.649 675.673 313.714 700.634 288.753 722.569C263.791 743.749 237.317 762.659 209.331 779.299C208.574 779.299 208.574 780.056 208.574 780.812C208.574 781.569 208.574 781.569 208.574 782.325C208.574 783.081 209.331 783.081 210.087 783.081C210.843 783.081 211.6 783.081 211.6 783.081Z" fill="white"/>
<path d="M564.083 359.499C564.839 359.499 564.839 359.499 565.595 358.743C566.352 357.987 566.352 357.987 566.352 357.23C566.352 356.474 566.352 356.474 565.595 355.717C564.839 354.961 564.839 354.961 564.083 354.961C563.326 354.961 563.326 354.961 562.57 355.717C561.813 356.474 561.813 356.474 561.813 357.23C561.813 357.987 561.813 357.987 562.57 358.743C563.326 358.743 563.326 359.499 564.083 359.499Z" fill="white"/>
<path d="M719.901 306.55C723.683 331.512 727.465 356.473 732.76 381.434C733.517 384.46 737.299 382.947 736.542 379.921C731.247 354.96 727.465 329.999 723.683 305.038C723.683 302.768 719.145 304.281 719.901 306.55Z" fill="white"/>
<path d="M738.811 409.422C738.055 415.474 738.811 422.281 741.836 427.576C743.349 429.845 746.375 427.576 745.618 425.307C743.349 420.012 742.593 414.717 743.349 408.666C743.349 406.397 739.567 407.153 738.811 409.422Z" fill="white"/>
<path d="M632.159 431.356C610.224 465.394 584.506 496.406 557.276 525.906C555.763 528.175 558.788 531.201 560.301 528.932C588.288 499.432 613.249 467.663 635.941 433.625C637.454 431.356 633.672 429.087 632.159 431.356Z" fill="white"/>
<path d="M418.097 647.686C426.418 653.737 436.251 659.788 446.84 656.006C457.43 652.224 462.725 643.148 471.802 637.096C471.802 637.096 472.558 637.096 472.558 636.34C472.558 635.584 472.558 635.584 472.558 635.584V634.827V634.071C472.558 634.071 472.558 633.314 471.802 633.314H471.045H470.289H469.532C462.725 637.853 457.43 643.904 450.622 649.199C440.033 656.763 430.2 651.468 420.366 643.904C418.097 642.391 415.828 646.173 418.097 647.686Z" fill="white"/>
<path d="M487.687 617.43L493.738 611.379C495.251 609.11 492.225 606.084 490.712 608.353L484.661 614.405C482.392 616.674 485.417 619.699 487.687 617.43Z" fill="white"/>
<path d="M75.4484 845.862C82.256 853.426 93.602 854.182 102.679 850.4C111.756 846.618 120.832 836.029 127.64 826.195C129.153 823.926 125.371 821.657 123.858 823.926C114.781 836.785 95.1148 859.477 78.474 842.08C76.9612 841.323 73.9356 844.349 75.4484 845.862Z" fill="white"/>
<path d="M287.24 631.801C294.048 621.968 303.124 613.647 313.714 608.353C315.983 606.84 313.714 603.814 311.445 604.571C300.099 610.622 290.266 618.942 283.458 629.532C281.945 631.801 285.727 634.07 287.24 631.801Z" fill="white"/>
<path d="M564.083 302.768H585.262C586.018 302.768 586.018 302.768 586.775 302.011C587.531 301.255 587.531 301.255 587.531 300.499C587.531 299.742 587.531 299.742 586.775 298.986C586.018 298.229 586.018 298.229 585.262 298.229H564.083C563.326 298.229 563.326 298.229 562.57 298.986C561.813 299.742 561.813 299.742 561.813 300.499C561.813 301.255 561.813 301.255 562.57 302.011C563.326 302.768 563.326 302.768 564.083 302.768Z" fill="white"/>
<path d="M605.684 302.769C612.492 302.769 618.543 302.769 625.351 301.256C627.62 301.256 626.863 296.717 623.838 297.474C617.787 298.987 611.735 298.987 605.684 298.987C602.659 298.23 602.659 302.769 605.684 302.769Z" fill="white"/>
<path d="M554.25 593.983C553.493 593.983 553.493 593.983 552.737 593.227L551.98 592.471V591.714V590.958C551.98 590.958 551.98 590.201 552.737 590.201L660.902 454.049L661.658 453.293H662.415H663.171C663.171 453.293 663.928 453.293 663.928 454.049L664.684 454.806V455.562V456.319C664.684 456.319 664.684 457.075 663.928 457.075L555.762 593.227L555.006 593.983C555.006 593.983 554.25 593.983 554.25 593.983Z" fill="#00448D"/>
<path d="M536.096 613.647L534.584 612.891L533.827 612.134V611.378V610.621C533.827 610.621 533.827 609.865 534.584 609.865L543.66 598.519C544.417 597.763 545.173 597.763 545.173 597.763C545.93 597.763 546.686 597.763 546.686 598.519C547.442 599.275 547.442 599.275 547.442 600.032C547.442 600.788 547.442 601.545 547.442 602.301L538.366 613.647L537.609 614.403C536.853 613.647 536.096 613.647 536.096 613.647Z" fill="#00448D"/>
<path d="M194.203 617.43C193.447 617.43 192.691 617.43 192.691 616.674L191.934 615.917C191.934 615.917 191.934 615.161 191.178 615.161V614.405C191.178 614.405 191.178 613.648 191.934 613.648L235.049 554.649L235.805 553.893H236.562H237.318C237.318 553.893 238.075 553.893 238.075 554.649L238.831 555.405V556.162V556.918C238.831 556.918 238.831 557.675 238.075 557.675L194.96 616.674L194.203 617.43C194.96 617.43 194.96 617.43 194.203 617.43Z" fill="#00448D"/>
<path d="M90.5762 770.222C92.089 772.492 95.871 770.222 94.3582 767.953Z" fill="#00448D"/>
<path d="M740.324 835.273H573.916C573.16 835.273 572.403 835.273 571.647 834.517C570.891 833.76 570.891 833.004 570.891 832.247C570.891 831.491 570.891 830.734 571.647 829.978C572.403 829.222 573.16 829.222 573.916 829.222H740.324C741.081 829.222 741.837 829.222 742.594 829.978C743.35 830.734 743.35 831.491 743.35 832.247C743.35 833.004 743.35 833.76 742.594 834.517C741.837 835.273 741.081 835.273 740.324 835.273Z" fill="#00448D"/>
<path d="M197.985 541.791C194.203 541.791 191.933 536.496 191.177 531.201C185.882 530.445 179.831 528.932 179.831 524.393C179.831 519.855 185.882 518.342 191.177 517.586C191.933 512.291 193.446 505.483 197.985 505.483C202.523 505.483 204.036 512.291 204.792 517.586C210.843 518.342 216.138 519.855 216.138 524.393C216.138 528.175 209.331 530.445 204.792 531.201C203.279 536.496 201.767 541.791 197.985 541.791ZM186.639 524.393C188.908 525.15 191.177 525.906 193.446 525.906H195.715V528.175C195.715 530.445 196.472 531.957 197.228 534.227C197.985 531.957 197.985 530.445 198.741 528.175V525.906H201.01C203.279 525.906 205.549 525.15 207.818 524.393C205.549 523.637 203.279 523.637 201.01 522.881H198.741V520.611C198.741 518.342 197.985 515.317 197.228 513.047C196.472 515.317 195.715 518.342 195.715 520.611V522.881H193.446C191.933 522.881 188.908 523.637 186.639 524.393Z" fill="#00448D"/>
<path d="M235.048 488.086C227.484 488.086 225.215 474.471 224.459 466.15C216.895 465.394 200.254 463.125 200.254 454.804C200.254 447.24 215.382 444.215 223.702 443.458C224.459 435.138 226.728 418.497 235.048 418.497C243.369 418.497 245.638 435.894 246.394 443.458C254.715 444.215 269.843 447.24 269.843 454.804C269.843 462.368 253.958 465.394 246.394 466.15C244.882 474.471 242.612 488.086 235.048 488.086ZM206.305 455.561C207.062 457.073 212.356 460.099 227.484 461.612H229.754V463.881C231.266 476.74 234.292 482.035 235.048 482.791C236.561 483.548 239.587 476.74 240.343 463.881V461.612H242.612C256.984 460.099 263.035 457.073 263.792 455.561C264.548 454.048 257.74 451.022 243.369 449.509H241.1V447.24C240.343 432.869 236.561 425.305 235.048 424.548C233.536 423.792 229.754 432.869 228.997 447.24V449.509H226.728C212.356 451.022 206.305 454.048 206.305 455.561Z" fill="#FFC800"/>
<path d="M694.94 667.354C691.158 667.354 688.889 662.059 688.132 656.764C682.837 656.008 676.786 654.495 676.786 649.957C676.786 645.418 682.837 643.906 688.132 643.149C688.889 637.854 690.401 631.047 694.94 631.047C699.478 631.047 700.991 637.854 701.747 643.149C707.042 643.906 713.093 645.418 713.093 649.957C713.093 653.739 707.042 656.008 701.747 656.764C700.235 662.059 698.722 667.354 694.94 667.354ZM684.35 650.713C686.619 651.47 688.889 652.226 691.158 652.226H693.427V654.495C693.427 656.764 694.183 658.277 694.94 660.546C695.696 658.277 695.696 656.764 696.453 654.495V652.226H698.722C700.991 652.226 703.26 651.47 705.529 650.713C703.26 649.957 700.991 649.957 698.722 649.2H696.453V646.931C696.453 644.662 695.696 641.636 694.94 639.367C694.183 641.636 693.427 644.662 693.427 646.931V649.2H691.158C688.889 649.2 686.619 649.957 684.35 650.713Z" fill="#00448D"/>
<path d="M760.747 720.302C753.183 720.302 750.913 706.687 750.157 698.367C742.593 697.61 725.952 694.585 725.952 687.021C725.952 679.457 741.08 676.431 749.401 675.675C750.157 667.354 752.426 649.957 760.747 649.957C769.067 649.957 771.336 667.354 772.093 675.675C780.413 676.431 795.541 679.457 795.541 687.021C795.541 694.585 779.657 697.61 772.093 698.367C770.58 706.687 767.554 720.302 760.747 720.302ZM731.247 687.777C732.003 689.29 737.298 692.315 752.426 693.828H754.695V696.097C756.208 709.713 759.234 714.251 759.99 715.007C761.503 715.764 764.529 708.956 765.285 696.097V693.828H767.554C781.926 693.072 787.977 689.29 788.733 687.777C789.49 686.264 782.682 683.239 768.311 681.726H766.041V679.457C765.285 665.085 761.503 657.521 759.99 656.765C758.477 656.008 754.695 665.085 753.939 679.457V681.726H751.67C737.298 683.239 732.003 686.264 731.247 687.777Z" fill="#FFC800"/>
<path d="M570.134 414.717C576.942 410.935 575.429 404.884 578.455 398.833C579.967 396.564 582.237 392.025 584.506 395.807C584.506 396.564 584.506 397.32 584.506 398.077C584.506 398.833 584.506 399.589 585.262 400.346C586.019 401.102 586.019 401.859 586.775 401.859C589.801 403.371 592.826 400.346 594.339 398.077C595.852 395.051 596.608 392.025 598.121 389C599.634 385.974 601.903 383.705 604.172 382.192C606.441 380.679 610.223 383.705 605.685 388.243C604.172 390.513 607.198 393.538 608.71 391.269C610.223 389 615.518 376.897 607.954 376.141C601.147 375.385 594.339 385.974 592.07 391.269L590.557 395.051C589.801 398.833 589.044 399.589 589.044 396.564C589.044 394.295 589.044 393.538 589.044 392.025C589.044 391.269 588.288 390.513 587.531 389.756C586.775 389 586.019 389 584.506 389C571.647 389 576.185 407.153 568.621 411.692C565.596 412.448 567.865 416.23 570.134 414.717Z" fill="#00448D"/>
<path d="M613.249 384.459C616.274 378.407 618.544 385.215 618.544 386.728C619.3 388.241 619.3 390.51 619.3 392.023C618.544 395.048 616.274 396.561 615.518 398.83C614.005 401.099 617.787 403.369 619.3 401.099C620.813 398.83 623.838 395.805 624.595 392.023C624.595 388.241 623.838 385.215 622.326 381.433C619.3 375.382 612.492 377.651 610.223 382.946C607.954 385.971 611.736 386.728 613.249 384.459Z" fill="#00448D"/>
<path d="M623.082 391.266C628.377 392.779 630.646 395.804 629.889 400.343C629.889 402.612 629.133 404.881 628.377 407.15C627.62 410.176 626.107 413.202 625.351 415.471C623.082 421.522 620.056 427.573 617.787 433.624C617.031 435.894 620.813 437.406 621.569 435.137C626.107 423.791 634.428 411.689 633.671 398.83C633.671 392.022 629.133 383.702 621.569 386.728C619.3 388.24 620.813 392.022 623.082 391.266Z" fill="#00448D"/>
</g>
<defs>
<clipPath id="clip0_543_7712">
<rect width="743.542" height="606.633" fill="white" transform="translate(52 271)"/>
</clipPath>
</defs>
</svg>
