<svg width="37" height="37" viewBox="0 0 37 37" fill="none" xmlns="http://www.w3.org/2000/svg">
<path fill-rule="evenodd" clip-rule="evenodd" d="M4.87138 0C2.41783 0 0.428833 1.989 0.428833 4.44255V31.9863C0.428833 34.4399 2.41783 36.4289 4.87138 36.4289H32.4152C34.8687 36.4289 36.8577 34.4399 36.8577 31.9863V4.44254C36.8577 1.989 34.8687 0 32.4152 0H4.87138ZM19.8855 15.1005H16.0094V28.7002H20.184V22.1117C20.184 19.9044 21.0033 18.5007 22.9747 18.5007C24.3962 18.5007 24.9545 19.8032 24.9545 22.1128V28.7002H29.1291V21.1891C29.1291 17.1335 28.1501 14.9231 24.0267 14.9231C21.8757 14.9231 20.4439 15.9208 19.8855 17.0312V15.1005ZM13.0256 14.9231V28.5228H8.85105V14.9231H13.0256ZM13.4195 11.5078C13.5544 11.185 13.6238 10.8385 13.6236 10.4886C13.6236 9.78209 13.3408 9.10581 12.8378 8.60694C12.3337 8.10808 11.6512 7.82734 10.9394 7.82734C10.2289 7.82703 9.54704 8.1072 9.04204 8.60694C8.53796 9.10581 8.25617 9.78209 8.25617 10.4886C8.25678 10.8385 8.32641 11.1848 8.46109 11.5077C8.59576 11.8306 8.79283 12.1237 9.04099 12.3703C9.54644 12.8694 10.228 13.1495 10.9383 13.1499C11.6499 13.1517 12.3331 12.8709 12.8378 12.3693C13.0868 12.1235 13.2846 11.8307 13.4195 11.5078Z" fill="white"/>
</svg>
