<svg width="153" height="53" viewBox="0 0 153 53" fill="none" xmlns="http://www.w3.org/2000/svg">
<g clip-path="url(#clip0_400_10721)">
<path d="M29.1426 4.90804V2.57073C29.1426 1.63581 29.9489 0.817754 30.8704 0.817754H38.8184C39.7399 0.817754 40.5462 1.63581 40.5462 2.57073V38.9158C40.5462 39.8507 39.7399 40.6688 38.8184 40.6688H29.1426V36.6954C26.4933 40.0845 22.5769 41.1363 18.891 41.1363C6.45071 41.1363 0.000220217 30.969 0.115408 20.1005C0.230595 9.23205 6.45071 0.233428 19.1213 0.233428C22.8073 0.116563 26.6085 1.63581 29.1426 4.90804ZM29.1426 20.4511C29.1426 15.1922 25.1111 10.8682 20.2732 10.8682C14.5138 10.8682 11.6341 15.5428 11.519 20.3343C11.4038 25.1257 14.3986 30.0341 20.2732 30.0341C25.1111 29.9172 29.1426 25.7101 29.1426 20.4511Z" fill="white"/>
<path d="M67.6152 0.584414L67.5 11.4529C66.3481 11.1023 64.9658 10.8686 63.6988 10.8686C59.552 10.9854 55.4053 13.2059 55.4053 18.4648V38.7994C55.4053 39.7343 54.7142 40.5523 53.6775 40.5523H42.2739C43.1954 40.5523 44.0017 39.7343 44.0017 38.7994V2.45426C44.0017 1.51934 44.808 0.70128 45.7295 0.70128H52.8712C53.6775 0.70128 54.3686 1.28561 54.4838 2.10366L54.7142 3.27232C57.2483 0.818145 60.128 -0.233643 63.238 -0.233643C64.6203 8.79765e-05 66.1177 0.233819 67.6152 0.584414Z" fill="white"/>
<path d="M112.423 0.817993C111.502 0.817993 110.465 1.51918 110.12 2.45411C103.784 18.5815 96.9883 36.2282 90.7681 52.2387H80.7468C79.595 52.2387 78.7886 51.0701 79.1342 49.9014L84.0873 37.28L71.1863 3.1553C70.7255 1.98665 71.5318 0.817993 72.7989 0.817993H81.7835C82.4746 0.817993 83.1658 1.28545 83.3961 1.86978L87.8885 13.4394L90.6529 23.4899L93.5326 13.4394L98.0249 1.86978C98.2553 1.16859 98.9464 0.817993 99.6376 0.817993H112.423Z" fill="white"/>
<path d="M150.923 38.6824V2.33724C150.923 1.40232 150.117 0.584265 149.195 0.584265H141.247C140.326 0.584265 139.52 1.28546 139.52 2.33724V4.79142C136.986 1.51919 133.184 -6.10352e-05 129.383 -6.10352e-05C116.713 -6.10352e-05 110.608 8.99856 110.377 19.867C110.262 30.8524 116.713 40.9028 129.153 40.9028C132.954 40.9028 136.755 39.851 139.404 36.4619V38.6824C139.404 39.6173 140.211 40.4353 141.132 40.4353H152.536C151.614 40.4353 150.923 39.6173 150.923 38.6824ZM130.65 29.8006C124.776 29.8006 121.781 24.8922 121.896 20.1008C122.011 15.3093 124.891 10.6347 130.65 10.6347C135.603 10.6347 139.52 14.9587 139.52 20.2176C139.52 25.5934 135.603 29.8006 130.65 29.8006Z" fill="white"/>
</g>
<defs>
<clipPath id="clip0_400_10721">
<rect width="152.278" height="52.1219" fill="white"/>
</clipPath>
</defs>
</svg>
