<svg width="21" height="21" viewBox="0 0 21 21" fill="none" xmlns="http://www.w3.org/2000/svg">
<path d="M17.5244 6.88118L10.8577 11.0479L4.19108 6.88118V5.21452L10.8577 9.38118L17.5244 5.21452V6.88118ZM17.5244 3.54785H4.19108C3.26608 3.54785 2.52441 4.28952 2.52441 5.21452V15.2145C2.52441 15.6565 2.70001 16.0805 3.01257 16.393C3.32513 16.7056 3.74905 16.8812 4.19108 16.8812H17.5244C17.9664 16.8812 18.3904 16.7056 18.7029 16.393C19.0155 16.0805 19.1911 15.6565 19.1911 15.2145V5.21452C19.1911 4.77249 19.0155 4.34857 18.7029 4.03601C18.3904 3.72345 17.9664 3.54785 17.5244 3.54785Z" fill="white"/>
</svg>
