<svg width="79" height="61" viewBox="0 0 79 61" fill="none" xmlns="http://www.w3.org/2000/svg">
<path d="M76.0033 43.5269L74.9097 15.2292C74.9848 14.2842 74.4811 12.9763 74.2542 12.0074C73.7255 11.0144 73.1968 10.0215 72.3411 9.31954C71.4854 8.6176 70.6297 7.91566 69.749 7.52871C68.8683 7.14176 67.6607 7.04581 66.755 6.97385L10.628 9.80479C8.48959 9.95186 6.57803 11.0679 4.94334 12.5229C3.30866 13.9779 2.80654 16.4738 2.93326 18.7027L4.02686 47.0004C3.92675 48.2604 4.45549 49.2533 4.68232 50.2223C5.21106 51.2152 5.7398 52.2082 6.59547 52.9101C7.45115 53.612 8.30682 54.314 9.18752 54.7009C10.0682 55.0879 11.2759 55.1838 12.1816 55.2558L16.1314 55.2527C19.4524 55.5165 40.5095 54.3368 43.5786 53.9467L67.6797 52.6919C69.8181 52.5448 71.7297 51.4288 73.3644 49.9738C75.351 47.9128 76.13 45.7558 76.0033 43.5269Z" fill="#0266D1"/>
<path d="M18.61 37.1762C26.2701 35.474 27.1212 48.2407 34.7812 47.8152C37.3346 47.8152 38.6113 46.1129 39.8879 43.9851C42.0157 40.5807 44.1435 37.6018 46.6969 34.6229C56.0591 23.9839 68.8259 17.175 77.7626 5.6849C80.7415 1.42932 73.9326 -2.40071 70.9537 1.85487C62.8681 12.4938 50.1013 18.8772 41.1646 29.0906C39.0368 31.2184 37.3346 33.7718 35.6323 36.3251L33.9301 38.8784C32.6534 40.5807 33.079 40.5807 34.7812 39.304C34.7812 38.8784 32.2279 35.8995 31.8023 35.8995C27.5467 31.2184 22.44 28.665 16.4822 29.5162C10.0988 30.7928 13.5033 38.4529 18.61 37.1762Z" fill="#FFC800"/>
</svg>
