<svg width="79" height="59" viewBox="0 0 79 59" fill="none" xmlns="http://www.w3.org/2000/svg">
<path d="M76.0032 41.5269L74.9096 13.2292C74.9847 12.2842 74.481 10.9763 74.2542 10.0074C73.7254 9.01442 73.1967 8.02148 72.341 7.31954C71.4854 6.6176 70.6297 5.91566 69.749 5.52871C68.8683 5.14176 67.6606 5.04581 66.7549 4.97385L10.6279 7.80479C8.48953 7.95186 6.57797 9.06788 4.94328 10.5229C3.3086 11.9779 2.80648 14.4738 2.9332 16.7027L4.0268 45.0004C3.92669 46.2604 4.45543 47.2533 4.68226 48.2223C5.211 49.2152 5.73974 50.2082 6.59541 50.9101C7.45109 51.612 8.30676 52.314 9.18746 52.7009C10.0682 53.0879 11.2758 53.1838 12.1815 53.2558L16.1314 53.2527C19.4524 53.5165 40.5094 52.3368 43.5785 51.9467L67.6797 50.6919C69.8181 50.5448 71.7296 49.4288 73.3643 47.9738C75.351 45.9128 76.13 43.7558 76.0032 41.5269Z" fill="#0266D1"/>
<path d="M43.2877 54.3232C45.4086 54.3232 46.9511 52.7807 46.9511 50.6597C46.9511 50.6597 46.9511 50.6597 46.9511 50.4669V49.6957C46.9511 49.3101 46.9511 48.9244 46.7583 48.7316C46.5655 48.346 46.5655 48.1532 46.1799 47.7676C45.987 47.5747 45.6014 47.3819 45.4086 47.1891C45.023 46.9963 44.8302 46.9963 44.4445 46.9963L29.7908 46.6107C29.2124 46.6107 28.4411 46.2251 28.0555 45.8394C27.6699 45.4538 27.2842 44.6826 27.2842 44.1041V30.0288L40.3955 30.4144H40.5883V30.2216V30.0288V29.836L23.428 14.0254H23.2352C23.2352 14.0254 23.0424 14.0254 23.0424 14.2182C23.0424 14.2182 23.0424 14.2182 23.0424 14.411L6.65333 29.2576H6.46051L6.2677 29.4504C6.2677 29.4504 6.2677 29.4504 6.2677 29.6432C6.2677 29.6432 6.2677 29.6432 6.2677 29.836H6.46051L19.5718 30.0288V46.0322L19.1861 51.0454C19.1861 51.8166 19.3789 52.3951 19.7646 52.9735C20.1502 53.5519 20.9214 53.7447 21.4999 53.9375L42.3236 54.3232H43.2877Z" fill="#FFC800"/>
<path d="M23.0426 17.6892C21.3073 19.4245 19.572 20.967 17.6439 22.5095C17.4511 22.7023 17.2583 22.3166 17.4511 22.1238C19.3792 20.5813 21.1145 19.0388 22.8498 17.3035C23.0426 17.1107 23.2355 17.4963 23.0426 17.6892Z" fill="white"/>
<path d="M22.0791 31.957C21.6935 35.8133 21.6935 39.4767 22.0791 43.3329C22.0791 43.5258 21.6935 43.7186 21.6935 43.3329C21.3078 39.4767 21.5007 35.8133 21.6935 31.957C21.6935 31.5714 22.0791 31.7642 22.0791 31.957Z" fill="white"/>
<path d="M25.1627 51.4309C24.1986 51.4309 23.2346 51.2381 22.6561 50.274C22.0777 49.31 22.2705 48.3459 21.8849 47.3818C22.0777 48.1531 22.0777 48.9243 22.2705 49.6956C22.6561 50.8525 23.6202 51.0453 24.7771 51.0453C25.3555 51.0453 25.3555 51.4309 25.1627 51.4309Z" fill="white"/>
<path d="M21.8849 45.0691V44.2978C21.8849 44.105 22.2705 43.9122 22.2705 44.2978V45.0691C22.2705 45.2619 21.8849 45.2619 21.8849 45.0691Z" fill="white"/>
<path d="M34.612 26.5576L33.0695 25.2079C33.0695 25.2079 33.0695 25.2079 33.0695 25.0151V24.8223C33.0695 24.8223 33.0695 24.8223 33.2623 24.8223H33.4551L34.9976 26.1719C34.9976 26.1719 34.9976 26.172 34.9976 26.3648V26.5576C34.9976 26.5576 34.8048 26.5576 34.612 26.5576C34.8048 26.5576 34.612 26.5576 34.612 26.5576Z" fill="white"/>
<path d="M31.5264 24.0526C30.9479 23.667 30.5623 23.2814 30.1767 22.8957C29.9839 22.7029 30.3695 22.5101 30.5623 22.7029C30.9479 23.0885 31.3336 23.4742 31.912 23.8598C32.1048 23.8598 31.7192 24.2454 31.5264 24.0526Z" fill="white"/>
<path d="M27.2838 41.2115C27.4766 41.2115 27.4766 41.2115 27.4766 41.2115C27.4766 41.2115 27.4766 41.2115 27.4766 41.0187V33.6918C27.4766 33.6918 27.4766 33.6918 27.4766 33.499C27.4766 33.499 27.4766 33.499 27.2838 33.499C27.2838 33.499 27.2838 33.499 27.0909 33.499C27.0909 33.499 27.0909 33.499 27.0909 33.6918V41.0187C27.0909 41.0187 27.0909 41.0187 27.2838 41.2115C27.0909 41.2115 27.0909 41.2115 27.2838 41.2115Z" fill="black"/>
<path d="M29.9835 54.1302C29.9835 54.323 29.9835 54.323 29.9835 54.323C29.9835 54.323 29.9835 54.323 30.1763 54.323L42.9019 53.9374C42.9019 53.9374 42.9019 53.9374 43.0948 53.9374C43.0948 53.9374 43.0948 53.9374 43.0948 53.7446C43.0948 53.7446 43.0948 53.7446 43.0948 53.5518C43.0948 53.5518 43.0948 53.5518 42.9019 53.5518L30.1763 53.9374C30.1763 53.9374 30.1763 53.9374 29.9835 54.1302C29.9835 53.9374 29.9835 53.9374 29.9835 54.1302Z" fill="black"/>
<path d="M27.0913 43.7187C27.2841 43.7187 27.2841 43.7187 27.2841 43.7187C27.2841 43.7187 27.2841 43.7187 27.2841 43.5259V42.1762C27.2841 42.1762 27.2841 41.9834 27.0913 41.9834H26.8984H26.7056C26.7056 41.9834 26.7056 41.9834 26.5128 42.1762V43.5259C27.0913 43.5259 27.0913 43.5259 27.0913 43.7187Z" fill="black"/>
<path d="M23.2345 53.9377C23.2345 54.1305 23.2345 54.1305 23.2345 54.1305C23.2345 54.1305 23.2345 54.1305 23.4273 54.1305H27.6692C27.6692 54.1305 27.6692 54.1305 27.862 54.1305C27.862 54.1305 27.862 54.1305 27.862 53.9377C27.862 53.9377 27.862 53.9377 27.862 53.7449C27.862 53.5521 27.862 53.7449 27.862 53.7449C27.862 53.7449 27.862 53.7449 27.6692 53.7449H23.4273C23.4273 53.7449 23.4273 53.7449 23.2345 53.9377C23.2345 53.7449 23.2345 53.9377 23.2345 53.9377Z" fill="black"/>
<path d="M39.9311 8.26172C37.8102 8.26172 36.2677 9.80422 36.2677 11.9252C36.2677 11.9252 36.2677 11.9252 36.2677 12.118V12.8892C36.2677 13.2748 36.2677 13.6605 36.4605 13.8533C36.6533 14.2389 36.6533 14.4317 37.0389 14.8173C37.2318 15.0102 37.6174 15.203 37.8102 15.3958C38.1958 15.5886 38.3886 15.5886 38.7743 15.5886L53.8136 16.5526C54.3921 16.5526 55.1633 16.9383 55.5489 17.3239C55.9346 17.7095 56.3202 18.4808 56.3202 19.0592V33.1345L43.2089 32.7489H43.0161V32.9417V33.1345V33.3273L60.1764 49.1379H60.3692C60.3692 49.1379 60.5621 49.1379 60.5621 48.9451C60.5621 48.9451 60.5621 48.9451 60.5621 48.7523L76.9511 33.9058H77.1439L77.3367 33.7129C77.3367 33.7129 77.3367 33.713 77.3367 33.5201C77.3367 33.3273 77.3367 33.5201 77.3367 33.3273H77.1439L64.0327 33.1345V17.1311L64.4183 12.118C64.4183 11.3467 64.2255 10.7683 63.8399 10.1898C63.4542 9.61141 62.683 9.41859 62.1046 9.22578L46.6796 8.26172H39.9311Z" fill="#FFC800"/>
<path d="M60.7538 45.4744C62.4891 43.7391 64.2244 42.1966 66.1526 40.6541C66.3454 40.4613 66.5382 40.8469 66.3454 41.0397C64.4173 42.5822 62.6819 44.1247 60.9466 45.8601C60.7538 46.0529 60.561 45.6672 60.7538 45.4744Z" fill="white"/>
<path d="M68.082 39.1118C68.4676 38.5333 68.8532 38.1477 69.4316 37.9549C69.6245 37.7621 69.8173 38.1477 69.6245 38.3405C69.2388 38.5333 68.8532 38.919 68.4676 39.4974C68.2748 39.6902 67.8892 39.3046 68.082 39.1118Z" fill="white"/>
<path d="M61.5255 31.207C61.9111 27.3507 61.9111 23.6873 61.5255 19.831C61.5255 19.6382 61.9111 19.4454 61.9111 19.831C62.2968 23.6873 62.1039 27.3507 61.9111 31.207C61.9111 31.5926 61.5255 31.5926 61.5255 31.207Z" fill="white"/>
<path d="M58.6343 11.9258C59.5983 11.9258 60.5624 12.1186 61.1408 13.0827C61.7193 14.0467 61.5265 15.0108 61.9121 15.9748C61.7193 15.2036 61.7193 14.4323 61.5265 13.6611C61.1408 12.5042 60.1768 12.3114 59.0199 12.3114C58.2487 12.3114 58.2487 11.9258 58.6343 11.9258Z" fill="white"/>
<path d="M61.9111 18.0958V18.867C61.9111 19.0598 61.5255 19.2527 61.5255 18.867V18.0958C61.5255 17.903 61.9111 17.903 61.9111 18.0958Z" fill="white"/>
<path d="M48.9941 36.6055L50.5366 37.9551C50.5366 37.9551 50.5366 37.9552 50.5366 38.148V38.3408C50.5366 38.3408 50.5366 38.3408 50.3438 38.3408H50.151L48.6085 36.9911C48.6085 36.9911 48.6085 36.9911 48.6085 36.7983V36.6055C48.8013 36.6055 48.8013 36.6055 48.9941 36.6055Z" fill="white"/>
<path d="M52.0781 39.1106C52.6566 39.4963 53.0422 39.8819 53.4278 40.2675C53.6206 40.4603 53.235 40.6531 53.0422 40.4603C52.6566 40.0747 52.2709 39.6891 51.6925 39.3034C51.6925 39.3034 51.8853 38.9178 52.0781 39.1106Z" fill="white"/>
<path d="M56.5132 21.9512C56.5132 21.9512 56.3204 21.9512 56.5132 21.9512C56.3204 21.9512 56.3204 21.9512 56.3204 21.9512C56.3204 21.9512 56.3204 21.9512 56.3204 22.144V29.4709C56.3204 29.4709 56.3204 29.4709 56.3204 29.6637C56.3204 29.6637 56.3204 29.6637 56.5132 29.6637C56.5132 29.6637 56.5132 29.6637 56.7061 29.6637C56.7061 29.6637 56.7061 29.6637 56.7061 29.4709V22.144C56.5132 22.144 56.5132 22.144 56.5132 21.9512C56.5132 22.144 56.5132 22.144 56.5132 21.9512Z" fill="black"/>
<path d="M53.8134 9.2259C53.8134 9.2259 53.8134 9.03308 53.8134 9.2259C53.8134 9.03308 53.8134 9.03309 53.8134 9.03309C53.8134 9.03309 53.8134 9.03309 53.6206 9.03309L40.5093 8.64746C40.5093 8.64746 40.5093 8.64746 40.3165 8.64746C40.3165 8.64746 40.3165 8.64746 40.3165 8.84027C40.3165 8.84027 40.3165 8.84027 40.3165 9.03309C40.3165 9.03309 40.3165 9.03309 40.5093 9.03309L53.6206 9.41871C53.6206 9.2259 53.6206 9.2259 53.8134 9.2259C53.6206 9.2259 53.6206 9.2259 53.8134 9.2259Z" fill="black"/>
<path d="M56.5132 19.4443C56.3204 19.4443 56.3204 19.4443 56.3204 19.4443C56.3204 19.4443 56.3204 19.4443 56.3204 19.6372V20.9868C56.3204 20.9868 56.3204 21.1796 56.5132 21.1796H56.7061H56.8989C56.8989 21.1796 56.8989 21.1797 57.0917 20.9868V19.6372C56.706 19.6372 56.7061 19.6371 56.5132 19.4443C56.5132 19.6371 56.5132 19.6371 56.5132 19.4443Z" fill="black"/>
<path d="M60.5622 9.4184C60.5622 9.22559 60.5622 9.22559 60.5622 9.4184C60.5622 9.22559 60.5622 9.22559 60.5622 9.4184C60.5622 9.22559 60.5622 9.22559 60.5622 9.22559C60.5622 9.22559 60.5622 9.22559 60.3694 9.22559H56.1275C56.1275 9.22559 56.1275 9.22559 55.9347 9.22559C55.9347 9.22559 55.9347 9.22559 55.9347 9.4184C55.9347 9.4184 55.9347 9.4184 55.9347 9.61121C55.9347 9.61121 55.9347 9.61121 56.1275 9.61121H60.3694C60.3694 9.4184 60.3694 9.4184 60.5622 9.4184C60.3694 9.4184 60.3694 9.4184 60.5622 9.4184Z" fill="black"/>
</svg>
