<svg width="37" height="37" viewBox="0 0 37 37" fill="none" xmlns="http://www.w3.org/2000/svg">
<path fill-rule="evenodd" clip-rule="evenodd" d="M4.44254 0C1.989 0 0 1.989 0 4.44255V31.9863C0 34.4399 1.989 36.4289 4.44255 36.4289H31.9863C34.4399 36.4289 36.4289 34.4399 36.4289 31.9863V4.44254C36.4289 1.989 34.4399 0 31.9863 0H4.44254ZM30.9599 7.53708C30.5429 8.83319 29.6685 9.93326 28.4999 10.6319C29.6086 10.5001 30.6913 10.2031 31.7121 9.75064C30.9609 10.8746 30.0153 11.8555 28.9197 12.6473C28.9314 12.8872 28.9366 13.1283 28.9366 13.3708C28.9512 15.4652 28.5494 17.5416 27.7547 19.4795C26.9599 21.4173 25.788 23.1779 24.3071 24.6589C22.8262 26.14 21.0657 27.312 19.1279 28.1069C17.1902 28.9018 15.1138 29.3038 13.0194 29.2894C9.97849 29.2924 7.00105 28.4198 4.4428 26.776C4.88603 26.8268 5.33187 26.8529 5.77901 26.8529C8.29824 26.857 10.7456 26.0135 12.7273 24.4582C11.5602 24.4354 10.4292 24.0489 9.49227 23.3525C8.55536 22.656 7.85925 21.6845 7.5011 20.5733C8.33961 20.734 9.20372 20.701 10.0275 20.4769C8.7613 20.2208 7.62259 19.5347 6.80453 18.5349C5.98646 17.5351 5.5394 16.2831 5.53915 14.9912V14.9208C6.31549 15.3531 7.18394 15.5936 8.07209 15.6222C6.88863 14.8299 6.05108 13.617 5.72954 12.2296C5.408 10.8422 5.62657 9.38445 6.34088 8.15239C7.74545 9.88052 9.49773 11.294 11.484 12.301C13.4702 13.3081 15.646 13.8862 17.8701 13.9979C17.5952 12.799 17.7223 11.5429 18.2317 10.4234C18.7411 9.30383 19.6046 8.38291 20.6891 7.80257C21.7736 7.22223 23.0189 7.01469 24.2329 7.21196C25.447 7.40922 26.5625 8.00032 27.4075 8.89415C28.6603 8.64763 29.8618 8.18866 30.9599 7.53708Z" fill="white"/>
</svg>
